<svg className="w-6 h-6 text-neutral-400" fill="none" viewBox="0 0 24 24" stroke="currentColor" strokeWidth={1.5}>
    <path strokeLinecap="round" strokeLinejoin="round"
        d="M9 12h3.75M9 15h3.75M9 18h3.75m3-14.25h.008v.008H15.75V3.75zm0 3h.008v.008H15.75V6.75zm0 3h.008v.008H15.75V9.75zm0 3h.008v.008H15.75v-.008zM9 21H5.25A2.25 2.25 0 013 18.75V5.25A2.25 2.25 0 015.25 3h9.75c.621 0 1.125.504 1.125 1.125v1.5c0 .621-.504 1.125-1.125 1.125H7.5M9 21h9.75A2.25 2.25 0 0021 18.75V9.75c0-.621-.504-1.125-1.125-1.125H15.75"
    />
</svg>